<?xml version="1.0" encoding="utf-8"?>
<!-- Generator: Adobe Illustrator 19.1.0, SVG Export Plug-In . SVG Version: 6.00 Build 0)  -->
<svg version="1.1" id="Layer_1" xmlns="http://www.w3.org/2000/svg" xmlns:xlink="http://www.w3.org/1999/xlink" x="0px" y="0px"
	 viewBox="0 0 114 20" style="enable-background:new 0 0 114 20;" xml:space="preserve">
<style type="text/css">
	.st0{fill:#222223;}
</style>
<polygon class="st0" points="14.6,0.3 0,0.3 0,3.7 5.4,3.7 5.4,19.7 9.2,19.7 9.2,3.7 14.6,3.7 "/>
<path class="st0" d="M25.2,0.3H20l-6.1,19.4h4l1.2-4h7l1.2,4h4L25.2,0.3L25.2,0.3z M25.1,12.4h-5l2.5-8.6L25.1,12.4z"/>
<path class="st0" d="M37.6,4.2c0.5-0.4,1.3-0.7,2.5-0.7c1.3,0,3.1,0.2,4.7,0.5l0.1,0l0.4-3.4l-0.1,0C43.6,0.2,41.7,0,40,0
	c-2.4,0-4.1,0.5-5.3,1.5C33.6,2.4,33,3.8,33,5.7v8.7c0,1.8,0.6,3.2,1.7,4.2c1.2,1,2.9,1.5,5.3,1.5c1.8,0,3.6-0.2,5.2-0.6l0.1,0
	L44.9,16l-0.1,0c-1.6,0.3-3.4,0.5-4.7,0.5c-1.2,0-2-0.2-2.5-0.7c-0.5-0.4-0.7-1.1-0.7-2.1V6.3C36.9,5.3,37.1,4.6,37.6,4.2z"/>
<polygon class="st0" points="59.3,8.2 52.4,8.2 52.4,0.3 48.5,0.3 48.5,19.7 52.4,19.7 52.4,11.6 59.3,11.6 59.3,19.7 63.2,19.7 
	63.2,0.3 59.3,0.3 "/>
<path class="st0" d="M94.2,13.7c0,1-0.2,1.6-0.7,2.1c-0.5,0.5-1.4,0.7-2.6,0.7c-1.2,0-2.1-0.2-2.6-0.7c-0.5-0.5-0.7-1.1-0.7-2.1V0.3
	h-3.9V14c0,1.7,0.5,3.1,1.6,4.1c1.2,1.2,3.1,1.8,5.6,1.8c2.5,0,4.4-0.6,5.6-1.8c1-1,1.6-2.4,1.6-4.1V0.3h-3.9V13.7z"/>
<path class="st0" d="M79.6,0.1c-0.6,0-1.2,0.2-1.6,0.7l0,0l-4.5,5.2L69,0.8l0,0c-0.4-0.4-1-0.7-1.6-0.7c-0.6,0-1.2,0.2-1.6,0.7
	c-0.9,0.9-0.9,2.4,0,3.2l4.8,5.2c-0.4,0.4-0.6,0.9-0.6,1.5c0,0.6,0.2,1.2,0.7,1.6l0.6,0.6l-0.4,0.4c-0.8,0.8-0.8,2,0,2.7l0.4,0.4
	l-0.3,0.3c-0.3,0.3-0.5,0.8-0.5,1.3c0,0.5,0.2,0.9,0.5,1.3c0.3,0.3,0.8,0.5,1.3,0.5c0.5,0,0.9-0.2,1.3-0.5l1.6-1.6
	c0.3-0.3,0.5-0.8,0.5-1.3c0-0.5-0.2-0.9-0.5-1.3l-0.3-0.3l0.6-0.6c0.4-0.4,0.6-0.9,0.6-1.4c0-0.5-0.2-1-0.6-1.4L74.7,11l6.5-7
	c0.9-0.9,0.9-2.4,0-3.2C80.8,0.3,80.3,0.1,79.6,0.1z"/>
<path class="st0" d="M113.2,10.4c-0.8-0.9-2.3-1.4-4.7-2c-3.3-0.8-3.3-0.8-3.3-2.9c0-0.9,0.1-1.4,0.5-1.6c0.4-0.3,1.1-0.4,2.3-0.4
	c1.6,0,3.4,0.2,5.1,0.6l0.1,0l0.4-3.3l-0.1,0c-1.8-0.4-3.8-0.6-5.6-0.6c-2.4,0-4.1,0.4-5.1,1.3c-1,0.8-1.4,2.1-1.4,4
	c0,2,0.2,3.3,0.9,4.2c0.7,0.8,1.9,1.3,4.4,1.9c1.8,0.4,2.6,0.6,3,1c0.4,0.4,0.4,0.9,0.4,2c0,0.8-0.1,1.4-0.5,1.8
	c-0.4,0.3-1.1,0.5-2.4,0.5c-1.7,0-3.4-0.3-5.4-0.9l-0.1,0l-0.7,3.1l0.1,0c1.2,0.6,3.7,1.2,6,1.2c2.8,0,4.6-0.5,5.6-1.4
	c0.9-0.8,1.3-2.1,1.3-4.2C114,12.5,113.9,11.3,113.2,10.4z"/>
</svg>
