<?xml version="1.0" encoding="UTF-8" standalone="no"?>
<!-- Created with Inkscape (http://www.inkscape.org/) -->

<svg
   xmlns:dc="http://purl.org/dc/elements/1.1/"
   xmlns:cc="http://creativecommons.org/ns#"
   xmlns:rdf="http://www.w3.org/1999/02/22-rdf-syntax-ns#"
   xmlns:svg="http://www.w3.org/2000/svg"
   xmlns="http://www.w3.org/2000/svg"
   xmlns:sodipodi="http://sodipodi.sourceforge.net/DTD/sodipodi-0.dtd"
   xmlns:inkscape="http://www.inkscape.org/namespaces/inkscape"
   width="139.99998"
   height="27.00012"
   viewBox="0 0 37.041664 7.1437819"
   version="1.1"
   id="svg14901"
   inkscape:version="0.92.0 r15299"
   sodipodi:docname="walmart labs.svg">
  <defs
     id="defs14895" />
  <sodipodi:namedview
     id="base"
     pagecolor="#ffffff"
     bordercolor="#666666"
     borderopacity="1.0"
     inkscape:pageopacity="0.0"
     inkscape:pageshadow="2"
     inkscape:zoom="6.4532375"
     inkscape:cx="69.499994"
     inkscape:cy="13.000119"
     inkscape:document-units="mm"
     inkscape:current-layer="layer1"
     showgrid="false"
     fit-margin-top="0"
     fit-margin-left="0"
     fit-margin-right="0"
     fit-margin-bottom="0"
     units="px"
     inkscape:window-width="1280"
     inkscape:window-height="744"
     inkscape:window-x="-4"
     inkscape:window-y="-4"
     inkscape:window-maximized="1" />
  <metadata
     id="metadata14898">
    <rdf:RDF>
      <cc:Work
         rdf:about="">
        <dc:format>image/svg+xml</dc:format>
        <dc:type
           rdf:resource="http://purl.org/dc/dcmitype/StillImage" />
        <dc:title></dc:title>
      </cc:Work>
    </rdf:RDF>
  </metadata>
  <g
     inkscape:label="Layer 1"
     inkscape:groupmode="layer"
     id="layer1"
     transform="translate(-425.75704,-239.91722)">
    <g
       id="g16689"
       transform="translate(0.13229067,-0.13228796)">
      <path
         id="Fill-1"
         d="m 446.01986,243.64063 c 0,0.0504 -0.004,0.10237 -0.0191,0.14795 -0.0601,0.18949 -0.26421,0.34992 -0.5196,0.34992 -0.21454,0 -0.38321,-0.11615 -0.38321,-0.36193 0,-0.37593 0.43002,-0.47997 0.92196,-0.47732 z m 0.81424,-0.65513 c 0,-0.62 -0.2762,-1.16545 -1.20837,-1.16545 -0.47864,0 -0.85886,0.12893 -1.06586,0.24382 l 0.1511,0.4986 c 0.18936,-0.11489 0.49194,-0.20999 0.77832,-0.20999 0.47268,-0.001 0.55044,0.25705 0.55044,0.42255 v 0.0393 c -1.03209,-0.002 -1.68415,0.34099 -1.68415,1.03938 0,0.42647 0.33191,0.82606 0.91043,0.82606 0.35388,0 0.65186,-0.13598 0.82957,-0.35379 h 0.0176 c 0,0 0.11744,0.47313 0.76644,0.29204 -0.0339,-0.19683 -0.0455,-0.40665 -0.0455,-0.65929 z m 3.79377,-0.45164 v -0.69684 h -0.67105 v -0.86147 h -0.76048 v 2.68715 c 0,0.37057 0.0734,0.63009 0.22901,0.78846 0.13651,0.1387 0.35975,0.22856 0.62698,0.22856 0.22758,0 0.45207,-0.0414 0.55794,-0.0794 l -0.0105,-0.57786 c -0.0777,0.0186 -0.16878,0.0332 -0.29206,0.0332 -0.26282,0 -0.3509,-0.16112 -0.3509,-0.49375 v -1.02805 z m -2.70157,-0.13609 h -0.0205 v -0.51607 h -0.69894 v 2.73627 h 0.79569 v -1.40099 c 0,-0.0756 0.004,-0.14162 0.0177,-0.20207 0.0587,-0.29352 0.29211,-0.48105 0.62846,-0.48105 0.0923,0 0.15702,0.01 0.22901,0.0195 v -0.71637 c -0.0602,-0.0116 -0.10127,-0.017 -0.17477,-0.017 -0.29663,0 -0.6343,0.18374 -0.7767,0.57772 z m -4.78775,-0.57772 c -0.22449,0 -0.40213,0.0539 -0.56231,0.14847 -0.13509,0.0794 -0.2554,0.19241 -0.36123,0.34073 h -0.0117 c -0.12189,-0.29461 -0.40947,-0.4892 -0.78536,-0.4892 -0.48161,0 -0.69883,0.23453 -0.82958,0.43349 h -0.0117 v -0.37184 h -0.73561 v 2.73627 h 0.77522 v -1.60487 c 0,-0.0751 0.009,-0.15454 0.0367,-0.22388 0.0631,-0.16138 0.22019,-0.35061 0.46986,-0.35061 0.31264,0 0.45952,0.25377 0.45952,0.61996 v 1.5594 h 0.77368 v -1.62408 c 0,-0.072 0.0103,-0.15812 0.0323,-0.22182 0.0631,-0.18388 0.23202,-0.33346 0.46548,-0.33346 0.31562,0 0.46823,0.24932 0.46823,0.68023 v 1.49913 h 0.7738 v -1.61156 c 0,-0.84989 -0.44935,-1.18636 -0.95731,-1.18636 z m -5.74865,1.82058 c 0,0.0504 -0.004,0.10237 -0.019,0.14795 -0.0602,0.18949 -0.26425,0.34992 -0.52119,0.34992 -0.21288,0 -0.38177,-0.11615 -0.38177,-0.36193 0,-0.37593 0.43028,-0.47997 0.922,-0.47732 z m 0.81423,-0.65513 c 0,-0.62 -0.27601,-1.16545 -1.20841,-1.16545 -0.47859,0 -0.85882,0.12893 -1.06612,0.24382 l 0.15159,0.4986 c 0.18932,-0.11489 0.49172,-0.20999 0.77809,-0.20999 0.47268,-0.001 0.55044,0.25705 0.55044,0.42255 v 0.0393 c -1.03205,-0.002 -1.68327,0.34099 -1.68327,1.03938 0,0.42647 0.33179,0.82606 0.90808,0.82606 0.35539,0 0.65202,-0.13598 0.82958,-0.35379 h 0.0177 c 0,0 0.11877,0.47313 0.76773,0.29204 -0.0337,-0.19683 -0.0454,-0.40665 -0.0454,-0.65929 z m -3.06299,-2.00995 -0.34238,1.57466 c -0.0921,0.45837 -0.1753,0.81686 -0.23994,1.23613 h -0.0114 c -0.0583,-0.41529 -0.13279,-0.75917 -0.22641,-1.20571 l -0.3561,-1.60508 h -0.84372 l -0.38109,1.56453 c -0.10772,0.47541 -0.20911,0.85937 -0.27329,1.26446 h -0.0114 c -0.0658,-0.38132 -0.15359,-0.86404 -0.2485,-1.32404 0,0 -0.22614,-1.11907 -0.30567,-1.50495 h -0.85253 c 0,0 0.67376,2.65007 0.7814,3.08011 0.12536,0.50215 0.3514,0.68707 1.00352,0.56231 l 0.42082,-1.64325 c 0.10667,-0.40802 0.17828,-0.69879 0.24673,-1.11411 h 0.0121 c 0.0481,0.41937 0.11681,0.70736 0.20425,1.11574 0,0 0.17153,0.74593 0.25905,1.1377 0.0882,0.39159 0.3327,0.63834 0.97163,0.50392 l 1.00235,-3.64242 z m 3.48283,3.64252 h 0.77074 v -3.64234 h -0.77074 z"
         inkscape:connector-curvature="0"
         style="fill:#2f2951;fill-rule:evenodd;stroke:none;stroke-width:0.26458332" />
      <polygon
         transform="matrix(0.26458333,0,0,0.26458333,425.75704,240.1818)"
         points="108,14.788517 102.54995,14.788517 102.54995,3 100,3 100,17 108,17 "
         id="Fill-3"
         style="fill:#2f2951;fill-rule:evenodd;stroke:none;stroke-width:1" />
      <path
         id="Fill-5"
         d="m 456.16683,243.62219 c 0,0.0513 -0.004,0.10419 -0.0181,0.15058 -0.0567,0.19285 -0.24939,0.35613 -0.49021,0.35613 -0.20245,0 -0.3617,-0.11822 -0.3617,-0.36836 0,-0.3826 0.40583,-0.48848 0.86997,-0.4858 z m 0.76823,-0.66676 c 0,-0.631 -0.2606,-1.18613 -1.14009,-1.18613 -0.4516,0 -0.81034,0.13122 -1.00564,0.24818 l 0.14253,0.50741 c 0.17873,-0.11693 0.46414,-0.21372 0.73423,-0.21372 0.44608,-0.001 0.51948,0.26162 0.51948,0.43006 v 0.04 c -0.97377,-0.002 -1.58895,0.34703 -1.58895,1.05782 0,0.43404 0.31301,0.84072 0.85895,0.84072 0.33378,0 0.61503,-0.1384 0.78267,-0.36007 h 0.0166 c 0,0 0.11081,0.48153 0.72303,0.29722 -0.0319,-0.20032 -0.0428,-0.4139 -0.0428,-0.67099 z"
         inkscape:connector-curvature="0"
         style="fill:#2f2951;fill-rule:evenodd;stroke:none;stroke-width:0.26458332" />
      <path
         id="Fill-7"
         d="m 458.94164,244.13839 c -0.31405,0 -0.569,-0.20647 -0.64606,-0.48004 -0.0118,-0.0502 -0.0177,-0.10597 -0.0177,-0.16172 v -0.44095 c 0,-0.0669 0.0119,-0.12844 0.0237,-0.17859 0.0831,-0.30135 0.34972,-0.50234 0.64598,-0.50234 0.48604,0 0.72902,0.39066 0.72902,0.87071 0,0.54693 -0.27846,0.89293 -0.73489,0.89293 m 0.27263,-2.2994 c -0.43265,0 -0.74674,0.17306 -0.92455,0.43539 h -0.0119 v -1.29883 h -0.72902 v 2.87822 c 0,0.0828 10e-4,0.14629 0.002,0.20113 -0.003,0.20644 -0.0151,0.38659 -0.044,0.55536 0.57702,0.16219 0.74671,-0.19662 0.77696,-0.27717 0.20728,0.24535 0.49974,0.34663 0.82362,0.34663 0.65208,0 1.30987,-0.48558 1.30987,-1.46222 0.006,-0.82599 -0.49777,-1.37851 -1.20313,-1.37851"
         inkscape:connector-curvature="0"
         style="fill:#2f2951;fill-rule:evenodd;stroke:none;stroke-width:0.26458332" />
      <path
         id="Fill-9"
         d="m 461.73877,242.95525 c -0.37936,-0.12598 -0.51999,-0.21199 -0.51999,-0.38964 0,-0.17187 0.14685,-0.29214 0.41599,-0.29214 0.26304,0 0.50174,0.0916 0.63013,0.16048 l 0.14681,-0.49846 c -0.17131,-0.0859 -0.45879,-0.16619 -0.78913,-0.16619 -0.69131,0 -1.1257,0.38389 -1.1257,0.8766 -0.006,0.32656 0.23861,0.62441 0.81989,0.81352 0.36697,0.12031 0.48935,0.21763 0.48935,0.40678 0,0.18336 -0.14677,0.30935 -0.47727,0.30935 -0.26906,0 -0.59336,-0.10314 -0.76475,-0.2005 l -0.14664,0.50988 c 0.22016,0.11464 0.54438,0.19479 0.90533,0.19479 0.78917,0 1.21133,-0.36661 1.21133,-0.87078 -0.006,-0.41253 -0.25687,-0.67036 -0.79535,-0.85369"
         inkscape:connector-curvature="0"
         style="fill:#2f2951;fill-rule:evenodd;stroke:none;stroke-width:0.26458332" />
      <path
         id="Fill-12"
         d="m 426.55079,243.88597 0.89262,-3.43959 h 0.13271 l -0.85873,3.30661 h 1.88591 c 0.0354,0 0.0642,0.0298 0.0642,0.0665 0,0.0367 -0.0287,0.0665 -0.0642,0.0665 z m 3.1053,-0.7212 h -2.15773 l 0.77868,-2.98297 h -1.58518 l -0.90403,3.46692 c -0.13511,0.52148 0.18725,0.94816 0.7163,0.94816 l 0.98344,3e-5 -0.62906,2.42805 c -0.008,0.0303 0.0309,0.0495 0.0494,0.0246 l 2.80359,-3.77095 c 0.0347,-0.0467 0.002,-0.11379 -0.0554,-0.11379 z"
         inkscape:connector-curvature="0"
         style="fill:#2f2951;fill-rule:evenodd;stroke:none;stroke-width:0.26458332" />
    </g>
  </g>
  <style
     id="style14903"
     type="text/css">
		.st0 {
			fill: #004289;
		}
		.st1 {
			fill: #FF8C00;
		}
	</style>
  <style
     id="style14927"
     type="text/css">
		.st0 {
			fill: #004289;
		}
		.st1 {
			fill: #FF8C00;
		}
	</style>
</svg>
